{"title":"Pacific Rim 2013 Cam XviD Feel-Free","uid":8698878,"size":1676375421,"categoryP":"video","categoryS":"movies","magnet":"?xt=urn:btih:2ab315e7b4ddaf316b1f9d0566430014fe178ce1&amp;dn=Pacific+Rim+2013+Cam+XviD+Feel-Free&amp;tr=udp%3A%2F%2Ftracker.openbittorrent.com%3A80&amp;tr=udp%3A%2F%2Fopen.demonii.com%3A1337&amp;tr=udp%3A%2F%2Ftracker.coppersurfer.tk%3A6969&amp;tr=udp%3A%2F%2Fexodus.desync.com%3A6969","seeders":3,"leechers":1,"uploader":"SaM","files":7,"time":1374016885,"description":"Genre: Action | Adventure | Fantasy\nLanguage:English\nIMDb:http://www.imdb.com/title/tt1663662/\nSource:TELESYNC x264-RAVERS / THC Thanks\nSample:Never\nEncoder:Tony\n\n\nFormat : AVI\nFormat/Info : Audio Video Interleave\nFile size : 1.56 GiB\nDuration : 2h 2mn\nOverall bit rate : 1 826 Kbps\n\nVideo\nID : 0\nFormat : MPEG-4 Visual\nFormat profile : Advanced Simple@L5\nFormat settings, BVOP : 1\nFormat settings, QPel : No\nFormat settings, GMC : No warppoints\nFormat settings, Matrix : Default (H.263)\nCodec ID : XVID\nCodec ID/Hint : XviD\nDuration : 2h 2mn\nBit rate : 1 654 Kbps\nWidth : 640 pixels\nHeight : 344 pixels\nDisplay aspect ratio : 1.860\nFrame rate : 29.970 fps\nColor space : YUV\nChroma subsampling : 4:2:0\nBit depth : 8 bits\nScan type : Progressive\nCompression mode : Lossy\nBits/(Pixel*Frame) : 0.251\nStream size : 1.41 GiB (91%)\nWriting library : XviD 1.2.1 (UTC 2008-12-04)\n\nAudio\nID : 1\nFormat : AC-3\nFormat/Info : Audio Coding 3\nMode extension : CM (complete main)\nCodec ID : 2000\nDuration : 2h 2mn\nBit rate mode : Constant\nBit rate : 160 Kbps\nChannel(s) : 2 channels\nChannel positions : Front: L R\nSampling rate : 48.0 KHz\nBit depth : 16 bits\nCompression mode : Lossy\nStream size : 140 MiB (9%)\nAlignment : Aligned on interleaves\nInterleave, duration : 33 ms (1.00 video frame)\nInterleave, preload duration : 512 ms\n &lt;a href=&quot;\nhttp://lookpic.com/O/i2/220/gSeuZ95t.png&quot; rel=&quot;nofollow&quot; target=&quot;_NEW&quot;&gt;\nhttp://lookpic.com/O/i2/220/gSeuZ95t.png&lt;/a&gt; &lt;a href=&quot;\nhttp://lookpic.com/O/i2/1421/6uJb2hVL.png&quot; rel=&quot;nofollow&quot; target=&quot;_NEW&quot;&gt;\nhttp://lookpic.com/O/i2/1421/6uJb2hVL.png&lt;/a&gt; &lt;a href=&quot;\nhttp://lookpic.com/O/i2/369/9vrpVcq.png&quot; rel=&quot;nofollow&quot; target=&quot;_NEW&quot;&gt;\nhttp://lookpic.com/O/i2/369/9vrpVcq.png&lt;/a&gt;\n\nGreets:\nCRYS,INSPiRAL,IMAGINE,LKRG,ADTRG,FXG,3Li,FLAWL3SS,CrEwSaDe,TA,iLLUSiON,EMBER,HOPE,GooN,BBnRG,NOGRP,ETRG,BHRG,iLLUMiNATi,MiSTERE.ViSiON,DTRG SAFCuk009,LU,TheFalcon007,MYSTiC,PrisM,Noir,WBZ,LAP,Rx,Kingdom,SAFCuk009+Fabreezy,HDLiTE,TWiZTED,ETRG.ELEKTRI4KA,MAGNAT,CM8\nAnd to all the other p2p grps past and present\n\n\n\n\nMake sure its a real Feel-Free release @\nThanks to all who promotes release Feel-Free !!!","torrent":{"xt":"urn:btih:2ab315e7b4ddaf316b1f9d0566430014fe178ce1","amp;dn":"Pacific+Rim+2013+Cam+XviD+Feel-Free","amp;tr":["udp%3A%2F%2Ftracker.openbittorrent.com%3A80","udp%3A%2F%2Fopen.demonii.com%3A1337","udp%3A%2F%2Ftracker.coppersurfer.tk%3A6969","udp%3A%2F%2Fexodus.desync.com%3A6969"],"infoHash":"2ab315e7b4ddaf316b1f9d0566430014fe178ce1","infoHashBuffer":{"type":"Buffer","data":[42,179,21,231,180,221,175,49,107,31,157,5,102,67,0,20,254,23,140,225]},"announce":[],"urlList":[]}}